<?xml version="1.0" encoding="utf-8"?><!DOCTYPE svg PUBLIC "-//W3C//DTD SVG 1.1//EN" "http://www.w3.org/Graphics/SVG/1.1/DTD/svg11.dtd"><svg version="1.1" xmlns="http://www.w3.org/2000/svg" xmlns:xlink="http://www.w3.org/1999/xlink" x="0px" y="0px" viewBox="0 0 30 30" enable-background="new 0 0 30 30" xml:space="preserve"><g><path fill="#FFFFFF" d="M12.2,7.6c0.5-0.2,1.1,0.5,1.5,0.7c2.2,1.6,4.5,3.3,6.8,5c0.4,0.3,0.9,0.6,0.9,1.2c0,0.5-0.5,0.8-0.9,1.1c-2.3,1.7-4.6,3.4-6.9,5.2C13,21.2,12,22,11.8,20.9c-0.1-0.8,0-2,0-2.7c0-3,0-6.1,0-9.1C11.8,8.5,11.7,7.7,12.2,7.6z"/></g><g><path fill="#FFFFFF" d="M15.1,30c-8.3,0-15-6.7-15-14.9s6.7-15,15-15S30,6.8,30,15.1S23.3,30,15.1,30z M15.1,1.1c-7.7,0-14,6.3-14,14c0,7.6,6.3,13.9,14,13.9C22.7,29,29,22.7,29,15.1C29,7.4,22.7,1.1,15.1,1.1z"/></g></svg>