<?xml version="1.0" encoding="utf-8"?><!DOCTYPE svg PUBLIC "-//W3C//DTD SVG 1.1//EN" "http://www.w3.org/Graphics/SVG/1.1/DTD/svg11.dtd"><svg version="1.1" id="Layer_1" xmlns="http://www.w3.org/2000/svg" xmlns:xlink="http://www.w3.org/1999/xlink" x="0px" y="0px" viewBox="0 0 30 30" enable-background="new 0 0 30 30" xml:space="preserve"><g><path fill="#FFFFFF" d="M15.1,30c-8.3,0-15-6.7-15-14.9s6.7-15,15-15S30,6.8,30,15.1S23.3,30,15.1,30z M15.1,1.1c-7.7,0-14,6.3-14,14c0,7.6,6.3,13.9,14,13.9C22.7,29,29,22.7,29,15.1C29,7.4,22.7,1.1,15.1,1.1z"/></g><path fill="#FFFFFF" d="M14.1,19.7c0,1.2-1,2.2-2.2,2.2l0,0c-1.2,0-2.2-1-2.2-2.2v-9.1c0-1.2,1-2.2,2.2-2.2l0,0c1.2,0,2.2,1,2.2,2.2V19.7z"/><path fill="#FFFFFF" d="M20.6,19.7c0,1.2-1,2.2-2.2,2.2l0,0c-1.2,0-2.2-1-2.2-2.2v-9.1c0-1.2,1-2.2,2.2-2.2l0,0c1.2,0,2.2,1,2.2,2.2V19.7z"/></svg>