<?xml version="1.0" encoding="utf-8"?>
<!-- Generator: Adobe Illustrator 17.1.0, SVG Export Plug-In . SVG Version: 6.00 Build 0)  -->
<!DOCTYPE svg PUBLIC "-//W3C//DTD SVG 1.1//EN" "http://www.w3.org/Graphics/SVG/1.1/DTD/svg11.dtd">
<svg version="1.1" id="Layer_1" xmlns="http://www.w3.org/2000/svg" xmlns:xlink="http://www.w3.org/1999/xlink" x="0px" y="0px"
	 viewBox="0 0 30 30" enable-background="new 0 0 30 30" xml:space="preserve">
<path fill="#FFFFFF" d="M10.3,7.6c0.6,0,1.2,0.5,1.2,1.2V14c0.2-0.3,0.5-0.5,0.7-0.7c2.3-1.7,4.6-3.4,6.8-5c0.4-0.3,0.9-0.9,1.5-0.7
	c0.5,0.1,0.4,0.9,0.4,1.6c0,2.9,0,6.1,0,9.1c0,0.7,0.1,1.9,0,2.7c-0.1,1.1-1.2,0.3-1.7-0.1c-2.3-1.7-4.5-3.5-6.9-5.2
	c-0.3-0.2-0.6-0.4-0.7-0.6v5.3c0,0.6-0.5,1.2-1.2,1.2S9.1,21,9.1,20.3V8.7C9.1,8.1,9.7,7.6,10.3,7.6z"/>
</svg>
