<?xml version="1.0" encoding="utf-8"?>
<!-- Generator: Adobe Illustrator 17.1.0, SVG Export Plug-In . SVG Version: 6.00 Build 0)  -->
<!DOCTYPE svg PUBLIC "-//W3C//DTD SVG 1.1//EN" "http://www.w3.org/Graphics/SVG/1.1/DTD/svg11.dtd">
<svg version="1.1" id="Layer_1" xmlns="http://www.w3.org/2000/svg" xmlns:xlink="http://www.w3.org/1999/xlink" x="0px" y="0px"
	 viewBox="0 0 25 25" enable-background="new 0 0 25 25" xml:space="preserve">
<path fill="#FFFFFF" d="M15.7,6.8l0.9-1.9L10.4,6l3.3,5.5L14.8,9c1.4,0.8,2.4,2.3,2.4,4c0,2.5-2.1,4.5-4.5,4.5S8.1,15.5,8.1,13H5.7
	c0,3.8,3.1,7,7,7s7-3.1,7-7C19.6,10.3,18,8,15.7,6.8z"/>
<g>
	<path fill="#FFFFFF" d="M12.6,25C5.7,25,0.1,19.4,0.1,12.6S5.7,0.1,12.6,0.1S25,5.7,25,12.6S19.4,25,12.6,25z M12.6,0.9
		C6.2,0.9,0.9,6.2,0.9,12.6c0,6.3,5.3,11.6,11.7,11.6c6.3,0,11.6-5.3,11.6-11.6C24.2,6.2,18.9,0.9,12.6,0.9z"/>
</g>
</svg>
