<?xml version="1.0" encoding="utf-8"?><!DOCTYPE svg PUBLIC "-//W3C//DTD SVG 1.1//EN" "http://www.w3.org/Graphics/SVG/1.1/DTD/svg11.dtd"><svg version="1.1" xmlns="http://www.w3.org/2000/svg" xmlns:xlink="http://www.w3.org/1999/xlink" x="0px" y="0px" viewBox="0 0 30 30" enable-background="new 0 0 30 30" xml:space="preserve"><path fill-rule="evenodd" clip-rule="evenodd" fill="#FFFFFF" d="M19.9,11.5c-0.4,0.3-0.8,0.8-1.2,1.2c-0.4,0.4-0.8,1-1.3,1.2c-0.8,0.3-1.5-0.3-1.3-1.1c0.1-0.3,0.4-0.5,0.6-0.7c0.7-0.7,1.3-1.4,1.9-2c-1.1,0.3-2-0.8-1.4-1.6c0.4-0.5,1.4-0.4,2.3-0.4c1.1,0,2.2-0.2,2.4,0.8c0.1,0.4,0,1.1,0,1.6c0,1.2,0.2,2.3-0.8,2.4C20.2,13.2,19.8,12.5,19.9,11.5z"/><path fill-rule="evenodd" clip-rule="evenodd" fill="#FFFFFF" d="M11.5,19.9c0.9-0.1,1.6,0.3,1.5,1.1c-0.1,1-1.2,0.9-2.4,0.9c-1.2,0-2.3,0.2-2.4-0.8c-0.1-0.4,0-1,0-1.7c0-0.6-0.1-1.2,0-1.7c0.2-1.2,2.3-1,1.9,0.7c0.5-0.4,1.3-1.2,1.9-1.8c0.2-0.2,0.6-0.6,0.9-0.6c0.8-0.1,1.4,0.5,1.1,1.3c-0.2,0.5-0.8,0.9-1.2,1.3C12.3,19,11.9,19.5,11.5,19.9z"/><path fill-rule="evenodd" clip-rule="evenodd" fill="#FFFFFF" d="M10.1,11.5c0.4,0.3,0.8,0.8,1.2,1.2c0.4,0.4,0.8,1,1.3,1.2c0.8,0.3,1.5-0.3,1.3-1.1c-0.1-0.3-0.4-0.5-0.6-0.7c-0.7-0.7-1.3-1.4-1.9-2c1.1,0.3,2-0.8,1.4-1.6c-0.4-0.5-1.4-0.4-2.3-0.4C9.4,8.2,8.3,8,8.2,9c-0.1,0.4,0,1.1,0,1.6c0,1.2-0.2,2.3,0.8,2.4C9.8,13.2,10.2,12.5,10.1,11.5z"/><path fill-rule="evenodd" clip-rule="evenodd" fill="#FFFFFF" d="M18.5,19.9c-0.9-0.1-1.6,0.3-1.5,1.1c0.1,1,1.2,0.9,2.4,0.9c1.2,0,2.3,0.2,2.4-0.8c0.1-0.4,0-1,0-1.7c0-0.6,0.1-1.2,0-1.7c-0.2-1.2-2.3-1-1.9,0.7c-0.5-0.4-1.3-1.2-1.9-1.8c-0.2-0.2-0.6-0.6-0.9-0.6c-0.8-0.1-1.4,0.5-1.1,1.3c0.2,0.5,0.8,0.9,1.2,1.3C17.7,19,18.1,19.5,18.5,19.9z"/></svg>