<?xml version="1.0" encoding="utf-8"?><!DOCTYPE svg PUBLIC "-//W3C//DTD SVG 1.1//EN" "http://www.w3.org/Graphics/SVG/1.1/DTD/svg11.dtd"><svg version="1.1" xmlns="http://www.w3.org/2000/svg" xmlns:xlink="http://www.w3.org/1999/xlink" x="0px" y="0px" viewBox="0 0 30 30" enable-background="new 0 0 30 30" xml:space="preserve"><path fill="#FFFFFF" d="M24.9,4.2c0.5-0.1,0.9,0.2,0.9,0.6c0.1,0.6-0.7,1.2-1.1,1.5c-6.2,6.2-12.3,12.3-18.5,18.6c-0.4,0.4-0.9,1.2-1.6,1c-0.1,0-0.4-0.3-0.5-0.5c-0.2-0.8,1.8-2.5,2.3-2.9c5.7-5.7,11.2-11.2,17-17C23.8,5,24.4,4.3,24.9,4.2z"/><path fill="#FFFFFF" d="M5.8,11.1c2.1-0.5,3.8,0.3,5.5-0.1c0.5-0.1,1.2-0.9,1.7-1.3c1.1-1,2.1-1.8,3.3-2.7c0.5-0.4,1.6-1.3,2.2-1.2c0.6,0.1,1.1,1,0.8,2c-0.1,0.4-0.9,1.1-1.4,1.5C15,12.2,12,15.2,9.2,18c-0.4,0.4-1,1.2-1.5,1.4c-0.8,0.2-1.8-0.1-1.8-0.2c-0.4-0.4-0.2-3.3-0.2-4.2C5.6,13.7,5.5,12.2,5.8,11.1z"/><path fill="#FFFFFF" d="M21.2,12.4c1.4-0.5,1.7,1.2,1.7,2.7c0,1.2-0.2,2.5-0.7,2.8c-0.5,0.3-1.3,0.1-1.4-0.3c-0.1-0.3,0.1-0.6,0.2-0.9c0.2-0.8,0.1-1.9,0-2.7C20.9,13.3,20.5,12.6,21.2,12.4z"/><path fill="#FFFFFF" d="M12.5,20.3c2.1-2.3,4.4-4.5,6.6-6.7c0,0,0.1,0,0.1,0.1c0,1.9,0,3.8,0,5.9c0,1.4,0.4,4.9-0.7,5.1c-0.6,0.1-1.3-0.5-1.8-0.8C15.2,22.7,13.9,21.4,12.5,20.3z"/></svg>