<?xml version="1.0" encoding="utf-8"?>
<!-- Generator: Adobe Illustrator 17.1.0, SVG Export Plug-In . SVG Version: 6.00 Build 0)  -->
<!DOCTYPE svg PUBLIC "-//W3C//DTD SVG 1.1//EN" "http://www.w3.org/Graphics/SVG/1.1/DTD/svg11.dtd">
<svg version="1.1" id="Layer_1" xmlns="http://www.w3.org/2000/svg" xmlns:xlink="http://www.w3.org/1999/xlink" x="0px" y="0px"
	 viewBox="0 0 524 560" enable-background="new 0 0 524 560" xml:space="preserve">
<path fill-rule="evenodd" clip-rule="evenodd" fill="#FFFFFF" d="M354.8,375.5c0-81.3,0-167.6,0-248.1c0-17.8,3.2-38.5-9.7-42.6
	c-14.4-4.6-30.7,13.1-40.3,20.2c-36.2,26.6-74,54.7-112,83h-114v171h113c38.9,29.2,77.4,58.6,116.7,88.2
	c12.9,9.7,42.4,33.4,46.3,2.2C357.5,428.7,354.8,395.2,354.8,375.5z"/>
<path fill-rule="evenodd" clip-rule="evenodd" fill="#FFFFFF" d="M403.5,185.9c20.5-4,29.1,24.6,35.7,44.4
	c12.1,36.4,9.5,80.7-3.2,111.5c-5.9,14.4-14.2,34.1-27.1,34.6c-8,0.4-18.2-6.5-19.5-15.2c-1.8-12.4,8.4-20.8,13-31.4
	c11.7-27,10-71.8-1.1-98.5C396,218.3,377.2,191,403.5,185.9z"/>
</svg>
